<svg width="45" height="44" viewBox="0 0 45 44" fill="none" xmlns="http://www.w3.org/2000/svg">
<path fill-rule="evenodd" clip-rule="evenodd" d="M17.4548 11.6446C17.0423 11.2322 16.4828 11.0005 15.8994 11.0005C15.3161 11.0005 14.7566 11.2322 14.344 11.6446L5.54404 20.4446C5.1316 20.8572 4.89991 21.4167 4.89991 22C4.89991 22.5834 5.1316 23.1429 5.54404 23.5554L14.344 32.3554C14.759 32.7562 15.3147 32.9779 15.8915 32.9729C16.4684 32.9679 17.0201 32.7365 17.428 32.3286C17.8359 31.9207 18.0673 31.3689 18.0723 30.7921C18.0773 30.2153 17.8556 29.6595 17.4548 29.2446L12.4102 24.2H37.8994C38.4829 24.2 39.0425 23.9682 39.4551 23.5556C39.8676 23.1431 40.0994 22.5835 40.0994 22C40.0994 21.4165 39.8676 20.857 39.4551 20.4444C39.0425 20.0318 38.4829 19.8 37.8994 19.8H12.4102L17.4548 14.7554C17.8673 14.3429 18.099 13.7834 18.099 13.2C18.099 12.6167 17.8673 12.0572 17.4548 11.6446Z" fill="#0F365C"/>
</svg>
